<?xml version="1.0" standalone="no"?>
<!DOCTYPE svg PUBLIC "-//W3C//DTD SVG 20010904//EN"
 "http://www.w3.org/TR/2001/REC-SVG-20010904/DTD/svg10.dtd">
<svg version="1.0" xmlns="http://www.w3.org/2000/svg"
 width="194.000000pt" height="259.000000pt" viewBox="0 0 194.000000 259.000000"
 preserveAspectRatio="xMidYMid meet">

<g transform="translate(0.000000,259.000000) scale(0.100000,-0.100000)"
fill="#000000" stroke="none">
<path d="M855 2566 c-309 -61 -548 -277 -695 -630 -81 -194 -114 -381 -114
-646 0 -205 9 -289 50 -450 102 -406 356 -693 679 -767 104 -23 298 -23 410 1
175 38 294 103 421 230 101 101 155 185 208 323 114 297 127 780 31 1142 -101
379 -346 682 -626 775 -102 34 -254 43 -364 22z m326 -59 c328 -105 573 -454
656 -932 24 -143 24 -540 0 -680 -69 -394 -268 -654 -574 -749 -175 -54 -393
-56 -547 -5 -298 100 -526 415 -602 834 -26 141 -26 488 0 630 86 479 364 828
721 905 104 23 269 21 346 -3z"/>
<path d="M835 2192 c-210 -72 -355 -291 -404 -607 -13 -84 -14 -400 -1 -518
43 -412 218 -604 568 -622 206 -10 349 76 442 270 124 254 144 765 42 1051
-56 160 -160 302 -272 374 -106 68 -266 90 -375 52z m289 -60 c115 -52 207
-150 277 -297 75 -156 105 -344 96 -595 -21 -550 -204 -792 -558 -740 -321 46
-439 219 -470 687 -24 369 45 664 195 830 61 66 100 94 174 124 66 27 217 22
286 -9z"/>
</g>
</svg>
