<?xml version="1.0" standalone="no"?>
<!DOCTYPE svg PUBLIC "-//W3C//DTD SVG 20010904//EN"
 "http://www.w3.org/TR/2001/REC-SVG-20010904/DTD/svg10.dtd">
<svg version="1.0" xmlns="http://www.w3.org/2000/svg"
 width="1104.000000pt" height="1342.000000pt" viewBox="0 0 1104.000000 1342.000000"
 preserveAspectRatio="xMidYMid meet">

<g transform="translate(0.000000,1342.000000) scale(0.100000,-0.100000)"
fill="#000000" stroke="none">
<path d="M3437 13358 c101 -106 201 -199 363 -338 250 -214 356 -323 396 -405
19 -38 34 -75 34 -82 0 -27 -79 35 -215 168 -77 75 -167 154 -200 175 -33 21
-107 74 -165 117 -123 94 -188 126 -274 137 -77 9 -109 26 -166 85 -65 69 -87
75 -248 75 -77 0 -153 -3 -170 -6 -31 -6 -31 -7 -17 -35 13 -24 35 -43 118
-100 5 -3 -5 -35 -21 -71 l-29 -65 -74 -7 c-40 -4 -81 -12 -90 -17 -10 -5 -31
-31 -48 -59 -17 -27 -33 -50 -36 -50 -3 0 -60 26 -127 59 -68 32 -190 84 -271
116 -122 48 -150 56 -158 44 -5 -8 -9 -53 -9 -102 l0 -87 -85 6 c-80 7 -87 6
-110 -16 -29 -27 -31 -40 -9 -81 21 -41 84 -68 178 -76 l76 -6 0 -96 0 -97 56
-54 c31 -30 132 -140 224 -245 217 -246 268 -294 425 -397 104 -68 153 -110
245 -204 275 -284 522 -572 831 -969 348 -447 446 -588 729 -1050 84 -137 213
-341 287 -453 73 -112 197 -316 275 -455 78 -139 178 -313 223 -387 103 -169
180 -321 201 -398 l17 -60 -214 -253 c-118 -140 -511 -600 -874 -1024 -1303
-1520 -1311 -1530 -2070 -2556 -99 -134 -227 -302 -284 -374 -91 -113 -141
-198 -127 -213 7 -6 97 26 127 46 15 9 53 50 84 91 32 41 91 114 131 163 40
48 106 139 147 201 103 157 215 293 397 481 86 88 175 188 197 221 23 33 58
77 80 97 37 36 110 75 120 64 9 -9 -77 -122 -250 -328 -90 -109 -190 -237
-222 -285 -89 -136 -99 -148 -285 -370 -216 -256 -682 -853 -772 -988 -37 -55
-126 -174 -199 -265 -72 -91 -165 -210 -206 -265 -42 -55 -77 -102 -78 -103
-5 -6 -116 21 -120 29 -3 4 15 35 38 70 54 79 60 89 53 89 -11 0 -116 -134
-116 -148 0 -8 18 -34 40 -58 22 -24 40 -49 40 -56 0 -7 -124 -168 -276 -358
-152 -190 -278 -349 -282 -354 -3 -6 23 10 58 35 90 63 198 172 340 344 68 83
214 242 325 355 111 113 287 300 390 415 103 116 299 323 434 461 206 210 257
257 309 283 34 17 62 26 62 20 0 -6 -16 -42 -36 -79 -34 -65 -129 -188 -270
-350 -36 -41 -139 -185 -229 -320 -179 -269 -247 -360 -377 -504 -123 -136
-449 -543 -531 -660 -84 -121 -154 -208 -321 -396 -71 -80 -206 -242 -301
-360 -95 -118 -233 -290 -307 -381 -73 -92 -153 -194 -177 -229 -40 -57 -42
-62 -20 -55 85 25 164 94 277 240 46 60 143 166 214 234 72 69 203 206 291
305 88 100 249 271 357 381 108 110 278 295 377 410 100 116 237 265 305 330
68 66 187 188 263 270 169 183 830 849 940 948 l79 72 -28 -50 c-37 -66 -95
-142 -176 -235 -36 -41 -110 -129 -165 -195 -55 -66 -187 -210 -295 -320 -174
-178 -201 -209 -239 -285 -39 -74 -66 -107 -220 -265 -222 -228 -287 -309
-136 -168 144 134 201 176 312 230 122 60 195 122 341 289 67 77 156 168 199
204 117 99 296 279 427 433 74 86 163 177 235 238 67 57 139 129 171 171 30
40 159 179 286 308 127 129 265 279 308 333 43 54 96 111 118 127 41 30 125
66 133 58 8 -8 -14 -70 -37 -106 -13 -18 -68 -71 -124 -116 -55 -44 -138 -124
-184 -176 -100 -113 -241 -266 -479 -520 -96 -102 -246 -266 -335 -365 -89
-98 -222 -243 -296 -320 -74 -78 -175 -197 -225 -265 -124 -170 -176 -225
-269 -279 -84 -48 -84 -59 2 -46 41 6 54 16 141 107 53 56 157 149 231 209 86
69 164 141 215 201 113 133 203 225 257 264 25 19 70 69 100 112 38 56 176
200 491 511 l437 434 0 -77 0 -77 74 88 c90 107 204 218 310 302 43 34 112 92
152 129 85 76 1098 1105 1219 1238 44 48 154 151 245 229 173 148 228 204 291
296 l38 56 -15 48 c-26 88 -42 108 251 -315 485 -701 660 -930 903 -1184 69
-72 192 -209 275 -305 160 -187 223 -251 576 -591 231 -223 347 -330 416 -384
l40 -31 -25 35 c-14 19 -99 109 -190 200 -124 124 -174 180 -198 226 -18 34
-32 67 -32 73 0 30 96 -42 210 -158 74 -75 147 -140 180 -158 30 -18 108 -72
173 -122 133 -102 205 -139 280 -148 65 -7 98 -24 165 -82 94 -81 93 -81 227
-81 127 0 180 9 215 38 21 17 20 18 -62 72 -110 74 -262 189 -320 242 -52 48
-128 135 -128 147 0 10 111 -5 178 -24 47 -14 58 -23 106 -88 84 -114 80 -111
193 -104 l97 7 62 61 61 60 139 -64 c158 -73 253 -110 338 -131 92 -24 114 -1
98 102 -5 29 -5 55 -1 58 5 3 47 2 94 -2 l85 -7 0 52 c0 28 -7 67 -14 86 l-15
35 -95 0 c-54 0 -98 4 -101 10 -4 6 -13 54 -21 106 l-14 96 -153 176 c-249
289 -390 425 -542 525 -104 67 -152 107 -240 199 -287 297 -539 598 -965 1148
-234 302 -386 529 -708 1060 -69 113 -162 257 -207 320 -45 63 -99 145 -119
181 l-36 66 113 119 c145 153 203 223 262 320 27 44 90 122 139 174 50 53 129
150 176 216 47 67 124 177 172 246 48 68 116 158 151 198 35 41 81 107 101
147 21 39 97 146 169 236 73 91 207 275 299 409 92 133 202 286 243 338 100
125 136 187 180 312 46 129 65 163 180 318 51 69 120 175 152 235 33 61 92
163 131 228 98 163 133 257 140 375 3 61 1 92 -6 92 -15 0 -67 -74 -191 -270
-102 -163 -150 -233 -376 -544 -51 -72 -145 -216 -209 -320 -124 -207 -162
-260 -274 -386 -97 -108 -206 -256 -390 -530 -146 -218 -319 -446 -329 -436
-13 12 91 197 205 365 68 102 173 268 232 370 150 260 213 362 491 806 333
530 336 535 354 585 9 25 25 88 35 140 32 160 198 467 388 721 l81 109 -42 0
c-73 0 -106 -16 -185 -92 -124 -118 -407 -336 -419 -324 -3 2 -15 41 -27 86
-12 44 -25 82 -28 83 -3 1 -40 -45 -83 -103 -43 -58 -111 -144 -152 -192 -41
-48 -158 -217 -260 -375 -200 -311 -304 -465 -393 -583 -72 -94 -90 -125 -185
-296 -42 -76 -91 -159 -108 -184 -38 -54 -114 -138 -139 -151 -18 -10 -18 -8
-3 28 27 66 82 151 187 291 56 75 121 169 144 209 39 68 41 78 48 179 8 127
24 165 151 349 45 66 96 147 112 180 44 86 118 286 152 408 38 134 63 182 155
298 109 135 161 240 180 362 19 118 48 179 156 332 88 125 145 223 136 232
-10 10 -83 -64 -144 -147 -31 -41 -126 -147 -211 -235 -173 -178 -246 -262
-410 -475 -196 -253 -236 -302 -371 -455 -73 -82 -169 -197 -213 -255 -52 -68
-200 -224 -421 -445 -360 -359 -465 -480 -578 -666 -72 -119 -72 -119 -314
-404 -158 -185 -301 -335 -322 -335 -17 0 -76 78 -115 150 -294 549 -452 807
-720 1179 -50 69 -147 207 -215 305 -329 474 -521 716 -817 1026 -60 64 -167
181 -237 261 -162 185 -438 456 -743 728 -132 118 -292 267 -355 332 -101 103
-223 199 -253 199 -6 0 17 -28 50 -62z m-339 -350 c84 -75 202 -203 202 -218
0 -9 -115 7 -176 25 -37 11 -62 27 -90 57 -36 39 -134 186 -134 201 0 6 36 13
80 16 19 1 50 -20 118 -81z m5442 -4380 c0 -21 -11 -41 -34 -64 -38 -38 -48
-41 -66 -19 -29 35 52 152 86 124 8 -6 14 -25 14 -41z m-6446 -5600 c8 -14 6
-22 -10 -38 -20 -21 -21 -21 -45 -1 -24 19 -24 19 -5 40 22 25 44 24 60 -1z"/>
<path d="M1931 3409 c-7 -12 -37 -66 -66 -120 -30 -54 -83 -136 -119 -184 -66
-85 -120 -179 -114 -196 6 -19 101 77 184 187 48 64 116 141 151 172 56 50 63
61 63 94 0 20 -7 44 -16 52 -23 23 -67 20 -83 -5z"/>
</g>
</svg>
